<svg xmlns="http://www.w3.org/2000/svg" viewBox="0 0 24 30"><path d="M10.909 17.145l-8.415-.005C.887 17.139.135 16.403.127 14.824.112 11.695.113 8.566.124 5.437c.004-1.417.734-2.109 2.23-2.115a952.6 952.6 0 0 1 3.381-.005l13.017.006c1.675.002 2.27.583 2.273 2.218.008 3.097.008 6.192 0 9.289-.005 1.639-.679 2.309-2.325 2.311l-7.791.004zM5.736 4.317c-1.126 0-2.252.001-3.377.005-1.053.004-1.232.348-1.235 1.119-.011 3.125-.012 6.252.003 9.378.005 1.024.312 1.32 1.368 1.321l8.414.005 7.791-.005c1.101-.002 1.324-.223 1.327-1.313.008-3.095.008-6.19 0-9.285-.002-1.07-.157-1.218-1.275-1.22L5.736 4.317zm.61 8.546c-1.776 0-3.145-1.332-3.329-3.24-.08-.833.147-1.591.657-2.191.583-.687 1.501-1.104 2.587-1.175a.5.5 0 0 1 .533.499v2.216h2.24a.5.5 0 0 1 .495.432c.118.854-.076 1.637-.561 2.261-.505.651-1.295 1.069-2.225 1.176a3.818 3.818 0 0 1-.397.022zm-.552-5.534c-.573.123-1.045.381-1.358.751-.331.389-.477.89-.423 1.447.143 1.478 1.238 2.47 2.618 2.319.659-.075 1.209-.357 1.548-.794.235-.304.365-.672.382-1.08H6.294a.5.5 0 0 1-.5-.5V7.329z"/><path d="M14.787 20.683c-2.537 0-5.074-.001-7.612-.005-1.003-.001-1.742-.284-2.197-.842-.562-.688-.676-1.734-.358-3.291a.5.5 0 1 1 .979.199c-.249 1.224-.199 2.028.153 2.46.26.318.726.474 1.424.475 4.803.008 9.604.005 14.404.003 1.182-.001 1.304-.12 1.304-1.276l-.006-8.434c-.001-.438-.109-.757-.333-.976-.343-.336-1.016-.493-2.003-.476a.49.49 0 0 1-.51-.49.5.5 0 0 1 .49-.51c1.265-.026 2.173.223 2.722.761.42.411.633.979.634 1.688l.006 8.436c0 1.701-.581 2.275-2.304 2.276l-6.793.002zM19.076 7.492h-5.584a.5.5 0 0 1 0-1h5.584a.5.5 0 0 1 0 1z"/><path d="M19.076 9.703h-5.584a.5.5 0 0 1 0-1h5.584a.5.5 0 0 1 0 1zM19.076 11.822h-5.584a.5.5 0 0 1 0-1h5.584a.5.5 0 0 1 0 1zM12.109 7.492h-.219a.5.5 0 0 1 0-1h.219a.5.5 0 0 1 0 1zM12.109 9.657h-.219a.5.5 0 0 1 0-1h.219a.5.5 0 0 1 0 1zM12.109 11.822h-.219a.5.5 0 0 1 0-1h.219a.5.5 0 0 1 0 1z"/></svg>
