<svg xmlns="http://www.w3.org/2000/svg" width="512" height="512" viewBox="0 0 24 24">
  <path d="M8 13a3 3 0 110-6 3 3 0 010 6zm0-4.5a1.5 1.5 0 100 3 1.5 1.5 0 000-3zM18.3 9h-4.6a.8.8 0 010-1.5h4.6a.8.8 0 010 1.5zM18.3 12.5h-4.6a.8.8 0 010-1.5h4.6a.8.8 0 010 1.5zM22.3 4.5H1.6C.8 4.5 0 3.7 0 2.7v-1C0 .8.8 0 1.8 0h20.4c1 0 1.8.8 1.8 1.8v1c0 1-.8 1.7-1.8 1.7zm-20.6-3s-.2.1-.2.3v1s.1.2.3.2h20.4c.2 0 .3-.1.3-.3v-1s-.1-.2-.3-.2zM22.3 18H1.6a.8.8 0 010-1.5h20.6a.8.8 0 010 1.5z"/>
  <path d="M12 24a.8.8 0 01-.8-.8v-5.7a.8.8 0 011.6 0v5.8c0 .4-.4.7-.8.7z"/>
  <path d="M16.3 24a.8.8 0 01-.7-.3l-3.6-5-3.6 5a.7.7 0 11-1.3-.9l4.3-5.7c.3-.4 1-.4 1.2 0l4.3 5.7a.8.8 0 01-.6 1.2zM21.3 18a.8.8 0 01-.8-.8V3.8a.8.8 0 011.5 0v13.4c0 .5-.3.8-.8.8zM2.8 18a.8.8 0 01-.8-.8V3.8a.8.8 0 011.5 0v13.4c0 .5-.3.8-.8.8z"/>
</svg>
