<svg xmlns="http://www.w3.org/2000/svg" viewBox="0 0 512 512" width="512" height="512">
  <path d="M424.5 433.5h-337a80 80 0 01-80-80v-195a80 80 0 0180-80h337a80 80 0 0180 80v195a80 80 0 01-80 80z" fill="#42b5db"/>
  <path d="M424.5 78.5h-30a80 80 0 0180 80v195a80 80 0 01-80 80h30a80 80 0 0080-80v-195a80 80 0 00-80-80z" fill="#09a3d5"/>
  <path d="M196.5 186.4v139.1c0 9.3 10.2 15 18 10.2L330 266.2a11.9 11.9 0 000-20.4l-115.3-69.5c-8-4.8-18 .9-18 10.1z" fill="#fff"/>
  <path d="M467.6 411.8a71.9 71.9 0 01-43.1 14.2h-337c-40 0-72.5-32.5-72.5-72.5v-195c0-40 32.5-72.5 72.5-72.5h8.9a7.5 7.5 0 100-15h-8.9A87.6 87.6 0 000 158.5v195A87.6 87.6 0 0087.5 441h337c18.9 0 36.9-6 52-17.1a7.5 7.5 0 00-8.9-12zM424.5 71H128.4a7.5 7.5 0 100 15h296.1c40 0 72.5 32.5 72.5 72.5v195c0 13-3.5 25.7-10 36.8a7.5 7.5 0 1012.9 7.6 87.4 87.4 0 0012.1-44.4v-195A87.6 87.6 0 00424.5 71z"/>
  <path d="M196.5 308.1a7.5 7.5 0 00-7.5 7.5v10c0 7 3.7 13.4 10 16.8a19.4 19.4 0 0019.5-.2l115.3-69.6c5.8-3.5 9.3-9.7 9.3-16.6s-3.5-13-9.3-16.6l-115.3-69.6c-6.1-3.6-13.4-3.7-19.6-.2a19.2 19.2 0 00-9.9 16.8v97.4a7.5 7.5 0 1015 0v-97.4c0-2.3 1.6-3.4 2.3-3.8.7-.4 2.4-1.1 4.4 0L326 252.3c2 1.2 2.1 3 2.1 3.8s-.2 2.6-2 3.8l-115.4 69.5c-2 1.2-3.7.5-4.4 0a4.3 4.3 0 01-2.3-3.8v-9.9c0-4.1-3.3-7.5-7.5-7.5z"/>
</svg>
