<svg xmlns="http://www.w3.org/2000/svg" viewBox="0 -62 512 512">
  <path d="M334.8 171L221.7 109a20.6 20.6 0 00-20.6.4 20.6 20.6 0 00-10.2 17.8V250a20.6 20.6 0 0020.8 20.8c3.4 0 6.8-.8 9.9-2.5l113-60.8a20.8 20.8 0 00.2-36.5zM221 234.6V143l84.6 46.2zm0 0"/>
  <path d="M508.2 91.5v-.2c-.4-4.1-4.7-40.8-22.6-59.4A83.3 83.3 0 00428 5.7l-.9-.1C359.3.6 257.1 0 256 0c-1.1 0-103.3.7-171.6 5.6l-1 .1-2.3.3a81.2 81.2 0 00-54.9 26.7C9.2 51 4.3 87 3.8 91v.5C3.6 93.2 0 134.1 0 175.1v38.3c0 41 3.6 81.8 3.8 83.5v.2c.4 4.1 4.7 40 22.5 58.7 19.3 21.2 43.8 24 57 25.5l5.1.7 1.2.2c39 3.7 161.6 5.5 166.8 5.6H256.7c1 0 103.3-.7 171-5.6l.8-.1 3-.3c11-1.2 34-3.6 54.3-26 17-18.5 21.9-54.4 22.4-58.4v-.5c.2-1.7 3.8-42.6 3.8-83.5V175c0-41-3.6-81.9-3.8-83.6zM482 213.4c0 37.9-3.3 77-3.6 80.5-1.3 10-6.5 32.6-14.7 41.6a49.3 49.3 0 01-35.5 16.4l-3.2.4a3222 3222 0 01-168.3 5.5c-5.1 0-125.8-2-163.7-5.5l-6.3-.8c-11.2-1.2-26.5-3-38.4-16l-.2-.3c-8.2-8.5-13.2-29.7-14.5-41.1-.2-2.7-3.6-42.3-3.6-80.7V175c0-38 3.3-77 3.6-80.6 1.5-11.7 6.8-33 14.7-41.6 13.2-14.5 27-16 36.2-17.1l2.5-.3c66.4-4.8 165.4-5.5 169-5.5 3.6 0 102.6.7 168.4 5.5l2.7.3c9.4 1 23.6 2.7 36.7 16.7h.1c8.2 8.5 13.2 30.1 14.5 41.8.2 2.6 3.6 42.2 3.6 80.8zm0 0"/>
</svg>
