<svg xmlns="http://www.w3.org/2000/svg" viewBox="0 0 512 512">
  <path fill="#ebedf2" d="M480 348.3H32a23.9 23.9 0 01-24-24V54.9a23.9 23.9 0 0124-24h448a23.9 23.9 0 0124 24v269.6a23.9 23.9 0 01-24 23.9z"/>
  <path fill="#d3d9ef" d="M480 30.9h-39a23.9 23.9 0 0124 23.9v269.6a23.9 23.9 0 01-24 23.9h39a23.9 23.9 0 0024-24V54.9a23.9 23.9 0 00-24-24z"/>
  <path fill="#1952a5" d="M343.6 366.5H168.4c-4.8 0-8.7-3.9-8.7-8.7v-27h192.6v27c0 4.8-4 8.7-8.7 8.7z"/>
  <path fill="#03427a" d="M317.5 330.9v26.9c0 4.8-3.9 8.7-8.7 8.7h34.8c4.8 0 8.7-3.9 8.7-8.7v-27h-34.8z"/>
  <path fill="#1952a5" d="M292.4 48.7h-72.8v-29c0-3.7 3-6.6 6.6-6.6h59.6c3.6 0 6.6 2.9 6.6 6.5v29.1z"/>
  <path fill="#03427a" d="M219.6 30.9h72.8v17.8h-72.8z"/>
  <path fill="#00cf69" d="M118 283.4H79.4V119.3c0-4.5 3.7-8.2 8.2-8.2h22.2c4.5 0 8.2 3.7 8.2 8.2v164.1z"/>
  <path fill="#fbc640" d="M186.4 283.4H148V171.1c0-4.5 3.7-8.2 8.1-8.2h22.3c4.5 0 8.1 3.7 8.1 8.1v112.4z"/>
  <path fill="#ff4f4f" d="M255.5 283.4h-38.6v-40.7c0-4.5 3.7-8.1 8.2-8.1h22.2c4.5 0 8.2 3.6 8.2 8v40.8z"/>
  <path fill="#00c17b" d="M109.8 111.1H87.6a8.1 8.1 0 00-8.2 8.2v2.3a27.8 27.8 0 0127.9 27.8v134H118V119.3c0-4.5-3.7-8.2-8.2-8.2z"/>
  <path fill="#f9a638" d="M178.3 163H156a8.1 8.1 0 00-8 8v2.4a27.8 27.8 0 0127.7 27.8v82.2h10.7V171.1c0-4.5-3.6-8.2-8-8.2z"/>
  <path fill="#dd4545" d="M247.3 234.6h-22.2a8.1 8.1 0 00-8.2 8v2.4a27.8 27.8 0 0127.9 27.8v10.6h10.7v-40.7c0-4.5-3.7-8.1-8.2-8.1z"/>
  <path d="M480 22.9H352.8a8 8 0 100 16H480c8.7 0 15.8 7.1 15.8 15.9v269.6c0 8.7-7 15.8-15.8 15.8H360.3V331a8 8 0 00-8-8H159.7a8 8 0 00-8 8v9.3H31.9c-8.7 0-15.8-7-15.8-15.8v-25.6a8 8 0 10-16.1 0v25.6a32 32 0 0032 31.9h119.7v1.5c0 9.2 7.5 16.8 16.7 16.8h49.1L168.8 496a8 8 0 1015 6l51-127.4h32.8l51.1 127.3a8 8 0 1015-6l-48.8-121.3h58.7c9.2 0 16.7-7.6 16.7-16.8v-1.5h119.8a32 32 0 0031.9-32V54.9a32 32 0 00-32-32zM343.7 358.5h-70.4-104.8a.7.7 0 01-.7-.7v-19h176.6v7a8 8 0 000 5v7c0 .4-.3.7-.7.7zM8 273.8a8 8 0 008-8v-211c0-8.8 7.2-15.9 16-15.9h179.6v9.8a8 8 0 008 8h72.8a8 8 0 008-8V39h19a8 8 0 100-16h-19v-3.3c0-8-6.5-14.6-14.6-14.6h-59.6c-8 0-14.6 6.6-14.6 14.6V23H31.9A32 32 0 000 54.8v211a8 8 0 008 8zM227.6 21.1h56.8v19.6h-56.8V21.1z"/>
  <path d="M118 140.2a8 8 0 008-8v-21a8 8 0 00-8-8H79.4a8 8 0 00-8 8v164.2H60.2a8 8 0 100 16h210.6a8 8 0 100-16h-7.3v-40.8a8 8 0 00-8-8h-38.6a8 8 0 00-8 8v40.8h-14.4V162.9a8 8 0 00-8-8h-38.6a8 8 0 00-8 8v112.5h-14V162.9a8 8 0 10-16 0v112.5H87.5V119.2h22.4v13a8 8 0 008 8zm107 102.4h22.4v32.8H225v-32.8zM156 171h22.4v104.4H156V171zM450.8 103.1H307.6a8 8 0 100 16h143.2a8 8 0 100-16zM450.8 137.6H307.6a8 8 0 100 16h143.2a8 8 0 100-16zM450.8 172H307.6a8 8 0 100 16h143.2a8 8 0 100-16zM450.8 206.5H307.6a8 8 0 100 16h143.2a8 8 0 100-16zM458.8 249a8 8 0 00-8-8H307.6a8 8 0 100 16h143.2a8 8 0 008-8zM307.6 275.4a8 8 0 100 16h88.6a8 8 0 100-16h-88.6z"/>
</svg>
