<svg xmlns="http://www.w3.org/2000/svg" width="24" height="32" viewBox="0 0 26 17" fill="currentColor">
  <path d="M23.8 2.5A2.5 2.5 0 0 0 21.3 0H2.5A2.5 2.5 0 0 0 0 2.5v9.9a2.5 2.5 0 0 0 2.3 2.5v-1A1.5 1.5 0 0 1 1 12.4V2.5A1.5 1.5 0 0 1 2.5 1h18.8a1.5 1.5 0 0 1 1.5 1.5v3h1zM2.3 13.9v1z M23.5 20.3H4.8a2.5 2.5 0 0 1-2.5-2.5V8a2.5 2.5 0 0 1 2.5-2.5h18.7A2.5 2.5 0 0 1 26 8v9.8a2.5 2.5 0 0 1-2.5 2.5zM4.8 6.5A1.4 1.4 0 0 0 3.3 8v9.8a1.4 1.4 0 0 0 1.5 1.5h18.7a1.4 1.4 0 0 0 1.5-1.5V8a1.4 1.4 0 0 0-1.5-1.5z M15.8 9.5h7.1v1h-7.1z M15.8 12.4h7.1v1h-7.1z M15.9 15.3H23v1h-7.1z M4.9 10h1.5v6.5H4.9zM7.4 11.7h1.5v4.74H7.4zM10 11.7h1.5v4.74H10z" />
  <circle cx="14.1" cy="10" r="0.7" />
  <circle cx="14.1" cy="12.9" r="0.7" />
  <circle cx="14.2" cy="15.8" r="0.7" />
</svg>
