<svg xmlns="http://www.w3.org/2000/svg" viewBox="0 0 1540 550">
    <defs>
        <g id="en" width="300" height="107" fill="currentColor">
            <path d="M1018.8 364.7c-13.6-1.1-15.4-19.4-32.8-17.2-8.4.3-16.3 4-16 11.9.4 11.7 18.5 12.1 29.6 14.8 18.8 5 37 8.2 37.7 28.4.9 25.7-18.9 35.3-45.4 36.3-22.2.7-45-6.3-45.7-26.8-.2-5.7 5-10.3 10.3-10.5s9.2 2.5 11.6 7.1c5.5 8.8 11.5 13.6 25.8 13.1 9.1-.3 18.3-4.2 18.1-12-.4-11.2-12-13.2-23.9-15.6-21.2-5.2-39.2-7.5-42.1-30.7-3.5-39.6 79-43.9 84.9-9.4-.1 6.3-5.9 10.4-12.1 10.6zm97.1-38.2c29-1 46.3 22.7 47.3 52.6s-14 54.6-43.6 55.7c-16.3.5-26.8-6.1-34.6-16.6l1.4 39.7c.4 11.9-3.2 17.8-11.9 18.2-10.6.3-12.8-6.4-13.2-17.3l-4-115.3c-.3-9.4 3.5-15.3 12-15.6s12.8 6 13.1 14.8v3.2c8-10.5 17.1-18.8 33.5-19.4zm-3.8 88c17-.6 24-16.5 23.4-34.8s-8.9-33.8-25.8-33.2-25.4 15.5-24.7 34.9 9.5 33.7 27.1 33.1zm70-61.9c-.8-20.9 23-29.2 46.2-30 32.7-1.1 46.4 7.9 47.5 39.4l1.1 30.3c.2 7.3 5.2 21.5 5.3 25.8.3 6.6-5.6 10.9-12.1 11.2s-12.9-8-16.9-14c-10.3 8.8-21.3 15.3-38.6 15.9-19 .7-34.4-10-35-28.6-.6-16.4 10.8-26.2 24.9-29.9 0 .1 45.1-12.3 45.1-12.5-.5-13.9-5.7-19.9-20.4-19.4-12.9.4-19.4 4.2-24.2 12.2-3.9 6-3.2 9.5-11 9.8-6.1.2-11.7-4-11.9-10.2zm41 61.2c19.9-.7 27.9-11.5 27.2-32.5l-.2-4.4c-5.2 2-26.7 8.1-32.6 9.2s-12.3 6.3-12.1 13.7 9.1 14.3 17.7 14zm141.8-135.6c28-.9 59.1 14.8 60.1 41.5.2 6.9-4.8 12.7-11.5 13-9.2.3-10.7-4.6-15-11.5-7.2-12.1-15.5-20.2-33-19.6-26.8.7-38.1 24.3-37.1 53s11.8 49.4 39.6 48.4c18.4-.6 28.3-11.7 33.1-25.7 2-6.5 5.5-12.8 13.6-13.1 6.3-.2 12.7 6 13 12.9 1 28.3-27.3 48.8-56.9 49.9-32.6 1.1-51.5-12-62.3-34.5a86.4 86.4 0 0 1-9.4-37.6c-2-43.9 22.5-75.1 65.8-76.7zm162 34c7.2-.3 11.5 4.3 11.8 11.5.1 2.9-2 8.9-2.9 12.1l-31.4 92.1c-7 20-12.3 33.8-38.5 34.7-12.4.5-23.3-.2-23.7-11.1-.2-6.3 4.4-9.6 11-9.8 1.2 0 3.3.5 4.5.5a41.6 41.6 0 0 1 4.5.4c13.1-.5 14.5-14 18.8-23.5l-36.2-81.4c-2.1-4.4-3.5-7.3-3.6-10-.3-7.2 5.2-12.7 12.8-13s12 6.2 14.5 13.5l24.3 64.7 19.9-61.3c3-9.5 3-19 14.2-19.4zM660.6 474.2c-7 0-10.9-4.3-13.5-8.1-3.7-5.3-5.7-11.5-7.7-18.6l-2.3-8.8s-9.1 19.7-9.1 19.8c-1.4 2.7-4.6 9.2-12.1 9.2-5.9 0-10.6-3.9-12.9-10.7a60.8 60.8 0 0 1-2.9-18.9c0-5.1.6-10 1.1-15.2v-.5c.7-5.5 4.6-9.2 9.8-9.2s8.7 1.8 9.2 10.6l.7 15.8c1.5-3 2.9-5.9 4.2-8.8s1.9-3.9 2.8-5.9h.1c.3-.7.7-1.5 1-2.3 1.7-3.9 4.2-9.7 11.6-9.7s10.6 7.2 11.9 11.4a13.5 13.5 0 0 0 .8 2.4v.3l2.1 7c1.4 4.5 2.8 9.2 4.3 13.8l.3.8a16 16 0 0 0 1.7 4.3c2-3.2 5.1-10.6 8.7-25.1s5.6-27.6 5.7-32.4l-.4-3.6v-.4c0-4 2.6-6.6 6.5-6.6s6.7 3 6.9 8.8v5.5a117.2 117.2 0 0 1-2.8 25.2 196.5 196.5 0 0 1-11.6 38.8c-2.5 6.8-6.8 10.5-12.7 11.2h-1.5z"/>
            <path d="M660.6 470.2c-4.8 0-7.7-2.7-10.2-6.3s-5.4-11.5-7.2-17.5l-4.8-18.9c-1.4 2.1-3.3 6.2-4.3 8.1l-9.7 21.1c-1.9 3.9-4.2 7-8.5 7s-7.7-3.9-9.1-8a55.7 55.7 0 0 1-2.7-17.6 134.9 134.9 0 0 1 1.2-15.3c.4-3.1 2.3-5.6 5.8-5.6s5 3.3 5.2 6.8l.8 17.6c.2 2.3 0 4.8 2.5 8.5 5.2-8.1 8.3-15.9 12-23.4 2.1-4.1 3.1-9.9 9.1-9.9s7.2 6.6 8.9 11.2c2.1 7 4.1 14 6.4 20.9 1.2 3.5 2.1 7.2 5.8 9.5 8.3-3.1 18.4-52.4 18.4-63.3l-.4-3.8c0-1.6.6-2.6 2.5-2.6s2.7 3.7 2.9 6.2v4.1a112.6 112.6 0 0 1-2.7 24.4 201.4 201.4 0 0 1-11.4 38.1c-1.7 4.7-4.5 8.2-9.5 8.7zm36.6-5.6h-.3c-5.2-.4-6.5-5.2-7.1-7.5v-.2a45.1 45.1 0 0 1-1.1-11.9v-5.9c.1-8.3.1-8.3.4-13 .1-2.1.3-5.2.6-10.6s4.7-10.2 9.9-10.5h.9c4.6.8 7.2 4.1 7.2 9v.4l-.2 2c-1.3 10.1-1.8 21.7-2.2 33l-.3 6.2v.4a20.2 20.2 0 0 1 .1 2.7 3.1 3.1 0 0 1-.1 1 5.9 5.9 0 0 1-5.5 4.6l-1.4.3zm1.8-70.5a6.3 6.3 0 0 1-6.5-5.8c0-.3-.1-.6 0-.8.4-5.9 5.1-7 6.9-7.5h.9c4.3 0 7.3 2.7 8 7.2a4.9 4.9 0 0 1 .1 1.2c-.5 3.3-3.2 5.5-6.9 5.6l-2.2.2z"/>
            <path d="M693.6 455.7a39.6 39.6 0 0 1-1-10.8c.2-19.8 0-10.1 1-29.3.1-3.2 2.7-6.5 6.1-6.7s3.9 1.7 3.9 5l-.2 1.9c-1.5 12.2-1.9 26.8-2.5 39.9a13.7 13.7 0 0 1 .2 2.9 1.9 1.9 0 0 1-2.1 1.6l-1.8.4c-2.5-.2-3.1-2.8-3.6-4.9zm2.9-67.9c.1-2.5 1.5-3.3 3.8-3.9s3.7 1.6 4.1 3.9-1.6 2.1-3.1 2.1l-2.3.2a2.3 2.3 0 0 1-2.5-2.3z"/>
            <path d="M737.1 488h-.5c-13.4-1.7-21.1-16-23-42.6-.7-8.7-1-15.8-1-22.4a306.3 306.3 0 0 1 2.1-35.3v-3.5l-20.8.4c-1.3 0-5.5-.4-6.2-5.8v-.5c0-3.4 2.1-6 5.7-7.1 1.5-.5 5.6-1.2 23.4-3.1a3.8 3.8 0 0 0 .1-1.2c.1 0 .1-.1.1-.2 3.6-24 7.3-28.8 12.3-28.8 3.4 0 7.1 2.2 7.1 8.5 0 2.2-.2 5.7-.6 10.7v1.1c-.4 4-.7 7.2-.8 9.1 10.9 0 18.8 0 23.6-.2h.2c5.7 0 17.7 0 17.7 7.3 0 1.6-.7 3.9-3.9 5.5-1.3.7-2.3 1.2-36.4 3l-1.4.2c-2.4 19.7-3.6 35-3.6 46.7 0 4.2.2 8.1.4 11.4 2.3 29.3 7.8 29.7 7.8 29.7s3.8-.3 11.9-11.9a288.3 288.3 0 0 0 23.8-40.7 4 4 0 0 1 2.4-2h.2a7.4 7.4 0 0 1 2.6-.5c3.4 0 5.9 2.7 5.9 6.3 0 1.3 0 3.8-7.9 17.7l-12.5 22.4c-10.4 17.6-19.5 25.8-28.7 25.8z"/>
            <path d="M717.6 445.1c-.6-7.6-1-14.9-1-22.1a310.3 310.3 0 0 1 2.1-35l.2-5.8c-.2-1.4-1.3-2-3.5-2l-21.5.4c-1.3 0-1.9-.8-2.1-2.3s1-2.7 2.9-3.3 9.5-1.5 22.9-2.9a4.5 4.5 0 0 0 1.9-.6c.8-.2 1.3-1.7 1.5-4.2 2.6-16.9 5.5-25.4 8.4-25.4s3.1 1.5 3.1 4.5-.2 5.6-.6 10.4-1 9.9-1 11.8.6 2.7 1.6 2.7c12.2 0 21.1 0 26.3-.2 9.1 0 13.7 1.2 13.7 3.3s-.6 1.4-1.7 2-12.8 1.3-34.9 2.5a11.5 11.5 0 0 0-4.8 1.3c-2.5 20.4-3.9 36.8-3.9 49.6 0 4.2.2 8.1.4 11.6 1.8 22.3 5.6 33.5 11.8 33.5 3.7 0 8.7-4.5 15.1-13.6a292.3 292.3 0 0 0 24.2-41.2 4.7 4.7 0 0 1 1.6-.4c1.1 0 1.9.8 1.9 2.3s-2.5 7.2-7.4 15.7l-12.5 22.5C753 476 744.7 484 737.1 484c-11.2-1.4-17.8-14.3-19.5-38.9z"/>
            <path d="M784.5 473.3l-1-.2c-6.2-1.6-9.6-6.2-9.6-13.1v-1.4c-.8-10.9-1.3-20.6-1.3-28 0-21.9 3-45.9 9-71.4 1-4.8 3.8-11.3 9.3-21.7s11.7-15.7 18.6-15.7 14.8 2.7 14.8 20.3v2.1c-2 20.4-12 45.5-30.5 76.6l-.5.6c0 .2-.2.5-.4 1.2s-.3 4.2-.4 6.2a82.3 82.3 0 0 1 7.6-9.6c4.1-4.6 8.1-5.6 10.8-5.6s7.2 1.3 10.8 7.4a132 132 0 0 1 6.2 11.9c4.6 11.2 7.3 13.4 7.9 13.8s2.3-.9 5.9-5h.1a180.9 180.9 0 0 0 17.4-22.2l.3-.4c1.1-1.4 2.9-3.2 5.4-3.2s4.7.4 5.5 5.6v.5c0 1.8-.8 3.8-2.7 7.1-18.5 29.4-27.7 32.8-33 32.8s-10.2-3-14.8-9.1h-.1a69.1 69.1 0 0 1-8.2-15.1l-2.1-4.8c-2 2.5-4.9 7-8.8 14.8a129.3 129.3 0 0 0-6 14.3c-.9 2.9-3.6 11.3-10.2 11.3zm25.9-134.4c-1.5 1.5-5.2 7.3-10 28.8-1.7 8-3 14.4-4 19.6a157.3 157.3 0 0 0 13.8-39.9c.4-3.2.5-4.4.5-4.7a22.5 22.5 0 0 0-.3-3.8z"/>
            <path d="M777.9 460v-1.6c-.9-11.8-1.3-21.1-1.3-27.8 0-21.3 2.9-45 8.9-70.5 1-4.8 4.1-11.6 8.9-20.7s9.9-13.6 15.1-13.6c7.2 0 10.8 5.5 10.8 16.3v1.7c-1.9 19.8-12 44.8-30 74.9a8.2 8.2 0 0 0-1.3 3.3c-.8 9.7-1.2 17.1-1.2 22.3a104.9 104.9 0 0 1 15.3-22.5c2.5-2.9 5.2-4.2 7.8-4.2s5.2 1.7 7.3 5.4a112.1 112.1 0 0 1 6 11.4c4.5 10.9 8.3 16.3 11.4 16.3s5.5-2.1 9.1-6.4a180.2 180.2 0 0 0 17.8-22.6q1.5-1.8 2.4-1.8c.9 0 1.3.8 1.5 2.1s-.8 2.7-2.1 5.1c-13 20.7-22.9 30.9-29.6 30.9-3.9 0-7.8-2.5-11.6-7.5a67.8 67.8 0 0 1-7.8-14.3l-4.4-10.1c-3.3 1.7-8 8.3-13.8 19.7a156 156 0 0 0-6.2 15c-1.7 5.6-3.9 8.5-6.4 8.5q-6.6-1.8-6.6-9.3zm36.2-111.9q.6-4.4.6-5.4c0-5.6-1.3-8.4-3.8-8.4-4.9 0-9.5 10.9-14.4 32.6-4.4 20.1-6.6 33.3-6.6 39.5a161.5 161.5 0 0 0 24.2-58.3zM206.2 276.8l-53.7 3.7-9.9-29.3-72.9 5.1-16.1 31.1L0 291.2 102.6 93.8l41.3-2.9zM90.4 216.7l39.7-2.8L115 169zM244.1 83.9l75.4-5.3c28.6-2 51.5 5.3 68.9 21.9s24.4 39.8 21.1 69.5-13.8 53.6-31.6 70.9-40.9 26.7-69 28.7l-85 5.9zm44.4 39.1l-11.4 106.6 32.4-2.3c30.1-2.1 49.6-22 52.4-58.5 2.4-34-11.7-50.1-41.8-48zm229.7 132l-41.3 2.8-59.5-186 50.9-3.6L503 180l58.9-118.3 56.2-3.9zm246.7-17.3l-53.6 3.8-10-29.4-72.8 5.1-16.2 31.2-53.6 3.7L661.3 54.7l41.3-2.8zm-115.8-60l39.7-2.8-15.1-45zm295.7 47.4l-41.7 2.9-61.1-95.4-10.5 100.5-48.9 3.4 20.2-191.6 41.5-2.9 61.1 95.9 10.7-101 48.9-3.4zm208.1-187.4c16.7 12.3 26 29.4 28.1 51.9l-50.6 7.4c-3.4-22.9-17.3-33.2-38.3-31.7-15.2 1.1-27.5 7.3-37.2 18.4s-15 25.4-16.1 42.5c-2.4 33.5 15.3 50.6 41.3 48.8 24.1-1.7 40.7-15.3 46.9-38.9l50.8 2c-5.3 23-16.5 41.6-33.8 56.1a102.8 102.8 0 0 1-60.1 24c-29.8 2.1-53.5-5.4-71.2-22.2s-25.2-41-23.1-71.9c2-29.4 12.6-53.3 31.4-71.6s42.2-28.7 70.3-30.6c24.6-1.7 45.3 3.4 61.6 15.8zm176.7 13.8l-75.2 5.3-3 28.6 64.5-4.5-4.6 42.8-64.6 4.5-3.3 32.6 75.7-5.3-4.8 43.8L1190 208l20.2-191.6 124-8.7zM1364 5.6l75.4-5.3c28.6-2 51.5 5.3 68.9 21.9s24.4 39.8 21.2 69.5-13.8 53.6-31.7 70.9-40.8 26.7-68.9 28.7l-85 5.9zm44.5 39.1l-11.4 106.6 32.4-2.3c30.1-2.1 49.6-22 52.3-58.6 2.5-34-11.6-50-41.7-47.9zM184 537.4l-41.8 2.9-61.1-95.4-10.5 100.4-48.8 3.5 20.1-191.7 41.5-2.9 61.2 96 10.7-101 48.9-3.4zm86.8-49.5l75.1-5.3-4.5 43.8-124 8.7 20.1-191.6 48.9-3.5zM387.1 333l80-5.6c19.4-1.3 35.3 3.6 47 15s17.2 27.3 15.6 47.5c-2.4 38.6-27.2 61.9-65.7 64.6l-41.5 2.9-6.7 63.8-48.9 3.4zm44.3 40.4l-4.3 40.5 31.6-2.2c12.2-.9 20.5-8.6 21.6-21.9 1-11.5-5.4-19.5-17.3-18.6z"/>
        </g>
        <g id="de" width="300" height="107" fill="currentColor">
            <path d="M1015.8 375.1c-13.6-1.1-15.4-19.4-32.8-17.2-8.4.3-16.3 4-16 11.9.4 11.7 18.5 12.1 29.6 14.8 18.8 5 37 8.2 37.7 28.4.9 25.7-18.9 35.3-45.4 36.3-22.2.7-45-6.3-45.7-26.8-.2-5.7 5-10.3 10.3-10.5s9.2 2.5 11.6 7.1c5.5 8.8 11.5 13.6 25.8 13.1 9.1-.3 18.3-4.2 18.1-12-.4-11.2-12-13.2-23.9-15.6-21.2-5.2-39.2-7.5-42.1-30.7-3.5-39.6 79-43.9 84.9-9.4-.1 6.3-5.9 10.4-12.1 10.6zm97.1-38.2c29-1 46.3 22.7 47.3 52.6s-14 54.6-43.6 55.7a38.6 38.6 0 01-34.6-16.6l1.4 39.7c.4 11.9-3.2 17.8-11.9 18.2-10.6.3-12.8-6.4-13.2-17.3l-4-115.3c-.3-9.4 3.5-15.3 12-15.6s12.8 6 13.1 14.8v3.2c8-10.5 17.1-18.8 33.5-19.4zm-3.8 88c17-.6 24-16.5 23.4-34.8s-8.9-33.8-25.8-33.2-25.4 15.5-24.7 34.9 9.5 33.7 27.1 33.1zm70-61.9c-.8-20.9 23-29.2 46.2-30 32.7-1.1 46.4 7.9 47.5 39.4l1.1 30.3c.2 7.3 5.2 21.5 5.3 25.8.3 6.6-5.6 10.9-12.1 11.2s-12.9-8-16.9-14a58.4 58.4 0 01-38.6 15.9c-19 .7-34.4-10-35-28.6-.6-16.4 10.8-26.2 24.9-29.9 0 .1 45.1-12.3 45.1-12.5-.5-13.9-5.7-19.9-20.4-19.4-12.9.4-19.4 4.2-24.2 12.2-3.9 6-3.2 9.5-11 9.8-6.1.2-11.7-4-11.9-10.2zm41 61.2c19.9-.7 27.9-11.5 27.2-32.5l-.2-4.4c-5.2 2-26.7 8.1-32.6 9.2s-12.3 6.3-12.1 13.7 9.1 14.3 17.7 14zm141.8-135.6c28-.9 59.1 14.8 60.1 41.5.2 6.9-4.8 12.7-11.5 13-9.2.3-10.7-4.6-15-11.5-7.2-12.1-15.5-20.2-33-19.6-26.8.7-38.1 24.3-37.1 53s11.8 49.4 39.6 48.4c18.4-.6 28.3-11.7 33.1-25.7 2-6.5 5.5-12.8 13.6-13.1 6.3-.2 12.7 6 13 12.9 1 28.3-27.3 48.8-56.9 49.9-32.6 1.1-51.5-12-62.3-34.5a86.4 86.4 0 01-9.4-37.6c-2-43.9 22.5-75.1 65.8-76.7zm162 34c7.2-.3 11.5 4.3 11.8 11.5.1 2.9-2 8.9-2.9 12.1l-31.4 92.1c-7 20-12.3 33.8-38.5 34.7-12.4.5-23.3-.2-23.7-11.1-.2-6.3 4.4-9.6 11-9.8 1.2 0 3.3.5 4.5.5a41.6 41.6 0 014.5.4c13.1-.5 14.5-14 18.8-23.5l-36.2-81.4c-2.1-4.4-3.5-7.3-3.6-10-.3-7.2 5.2-12.7 12.8-13s12 6.2 14.5 13.5l24.3 64.7 19.9-61.3c3-9.5 3-19 14.2-19.4zM181 547.8l-41.8 2.9-61.1-95.4-10.5 100.4-48.8 3.5 20.1-191.7 41.5-2.9 61.2 96 10.7-101 48.9-3.4zM267.8 498.3l75.1-5.3-4.5 43.8-124 8.7 20.1-191.6 48.9-3.5zM384.1 343.4l80-5.6c19.4-1.3 35.3 3.6 47 15s17.2 27.3 15.6 47.5c-2.4 38.6-27.2 61.9-65.7 64.6l-41.5 2.9-6.7 63.8-48.9 3.4zm44.3 40.4l-4.3 40.5 31.6-2.2c12.2-.9 20.5-8.6 21.6-21.9 1-11.5-5.4-19.5-17.3-18.6zM625.2 465a66.6 66.6 0 01-1.8-15.6 90.4 90.4 0 017.2-35c2-5 5.2-10.6 10-10.6a7.1 7.1 0 012.8.6 4.6 4.6 0 012 4 12.6 12.6 0 01-1.4 5.2 66.4 66.4 0 00-2.6 7 92.3 92.3 0 00-5.4 30.8l.2 4c6-10.6 13.2-23.4 19-33 2-3.4 4.6-6.6 6.8-9.8a6.3 6.3 0 015.2-2.8c5 .8 6.6 2.6 7.2 7 .6 6.4 1.2 12.8 1.6 19.2 0 1.2.8 6 .8 8 2-2.6 3.8-6.8 5-8.4 5-9 9.6-17.8 16.2-25.6 2.8-3.4 5.6-7.8 10.6-7.8a8.3 8.3 0 013 .4c6 2.2 5.2 11.8 6.6 17.2 2.2 7.8 4.8 25.6 14 25.6 11.4-.2 29.2-19.4 34-23a3.3 3.3 0 012.2-.8c1.2 0 2 .6 2 1.6a2.4 2.4 0 01-.8 1.6c-10.8 11.4-21.6 22.6-37.2 27.2l-2.4.2c-16.6 0-19.2-27.6-21.6-41.4-12 10.8-17.6 29-26.4 40.8-1.6 2.4-3.6 4-6.4 4-4.8-.4-6.8-3.2-8-7.8a67.7 67.7 0 01-2.2-14.2l-.4-11.8c-2 1.4-4.4 6.2-5.4 8-8.6 16-11.8 23.2-20.8 39-1.4 2.2-3.2 3.6-5.8 3.6-5-1-6.6-2.4-7.8-7.4z" />
            <path d="M633 476.4h-.8c-6.6-1.4-9.3-4-10.9-10.4a69.8 69.8 0 01-1.9-16.6 93.8 93.8 0 017.5-36.5c3.5-8.7 8.1-13.1 13.7-13.1a11.8 11.8 0 014.3.9l.5.2.5.4a8.5 8.5 0 013.5 7.1 15.4 15.4 0 01-1.8 6.9 81 81 0 00-2.4 6.5 89.2 89.2 0 00-4.3 17.1c3.8-6.6 7.5-13.1 10.9-18.6a80.9 80.9 0 014.6-6.8l2.3-3.2v-.2a10.4 10.4 0 018.4-4.4h.6c6.6 1 9.7 4.1 10.6 10.4v.2l1.3 14.7v-.2c4.6-8.4 9-16.2 15.1-23.5l1-1.2c2.7-3.4 6.4-8.1 12.7-8.1a12.8 12.8 0 014.3.6h.1c6.7 2.4 7.7 10 8.4 15.6a35.1 35.1 0 00.7 4.3l1.1 4.4c1.4 5.9 4.4 18.2 9 18.2 7.3-.1 20.3-12 26.5-17.7 2.2-2 3.9-3.6 5.1-4.5a7.4 7.4 0 014.6-1.6 5.7 5.7 0 016 5.6 6.3 6.3 0 01-1.9 4.4c-10.4 10.9-22.1 23.3-39 28.3h-.4l-3.1.2c-17 0-21.7-21.4-24.2-36.6-4.2 5.4-7.6 11.8-10.9 18a132.2 132.2 0 01-9.6 16.3c-2.6 3.8-5.8 5.7-9.7 5.7h-.3c-8-.6-10.5-6.4-11.6-10.8a69 69 0 01-2.2-14l-6.5 12.5c-3.9 7.4-7.2 13.7-12.7 23.5v.2c-2.2 4-5.3 5.8-9.1 5.8zm18.2-39.3l-9.7 17.1-8.1 14.2a3.2 3.2 0 002-1.6c5.4-9.6 8.7-15.9 12.5-23.2l3.3-6.5zm-10.6-29.3c-1.9 0-4.3 3.1-6.3 8.1a85.7 85.7 0 00-6.9 33.4 64.3 64.3 0 001.7 14.7c.7 3.1 1 3.6 3.7 4.2l-.8-16.8v-.2c.4-13 1.7-20.5 5.6-31.9a105 105 0 012.7-7.4 8.3 8.3 0 001.1-3.6.9.9 0 00-.1-.5zm66.7-1.3c-1.7.5-3.2 2.3-5.1 4.7a13.4 13.4 0 00-1.1 1.4c-5.7 6.7-9.9 14.3-14.3 22.2L685 438l-1.5 2.7a49.6 49.6 0 01-3.5 5.8l-4 5.1c.6-.1 1.5-.4 2.7-2.2v-.2a126.2 126.2 0 009.1-15.3c4.9-9.3 10-19 17.8-26zm-38.6 7.8l.7 19.2a65.4 65.4 0 002.1 13.3 9.7 9.7 0 001.3 3.3V444l-.4-4.4a19.5 19.5 0 01-.4-3.4c-.4-6.3-1-12.7-1.6-18.9-.3-2.3-.4-2.9-3.5-3.5a2.7 2.7 0 00-1.7 1.2l-2.4 3.4-.2.2h.1zm43.4-5.6l.2 1.5.8 4.4c1.8 11.3 4.4 27.5 12.1 32.3-5.7-4.7-8.1-14.6-9.8-21.8l-1.1-4.2c-.4-1.2-.6-3.5-.9-5.4a31.6 31.6 0 00-1.3-6.8z"/>
            <path d="M763.6 458a42.5 42.5 0 01-1-11.2c.2-20.4 0-10.4 1-30.2.2-3.4 2.8-6.8 6.4-7s4 1.8 4 5.2l-.2 2c-1.6 12.6-2 27.6-2.6 41.2a14.2 14.2 0 01.2 3 1.9 1.9 0 01-2.2 1.6l-1.8.4c-2.6-.2-3.2-2.8-3.8-5zm3-70.2c.2-2.6 1.6-3.4 4-4s3.8 1.6 4.2 4-1.6 2.2-3.2 2.2l-2.4.2a2.5 2.5 0 01-2.6-2.4z"/>
            <path d="M767.7 467.1h-.6c-5.3-.4-6.7-5.3-7.3-7.7v-.2a48.1 48.1 0 01-1.1-12.3v-6c0-8.6 0-8.6.3-13.5l.6-10.9c.3-5.5 4.8-10.5 10.2-10.8h.9c4.6.8 7.3 4.1 7.3 9.1v.4l-.2 2.1c-1.4 10.4-1.8 22.4-2.3 34.1l-.3 6.5v.3a22.7 22.7 0 01.1 2.8v1a6 6 0 01-5.6 4.6zm2.1-53.4a3.6 3.6 0 00-2.2 3.2l-.6 10.9c-.3 4.6-.3 4.6-.3 13v6.1a40.4 40.4 0 00.7 9.3l.2-5.2c.5-11.7 1-23.9 2.3-34.6l.2-1.7a1.6 1.6 0 00-.2-1zm-.4-19.5h-.2a6.5 6.5 0 01-6.6-5.9v-.8c.5-5.9 5.2-7.1 7-7.5l.5-.2h.5c4.3 0 7.4 2.8 8.1 7.4v1.1c-.5 3.4-3.2 5.7-7 5.7z" />
            <path d="M792.4 440c-.6-7.8-1-15.4-1-22.8a308.6 308.6 0 012.2-36.2l.2-6c-.2-1.4-1.4-2-3.6-2l-22.2.4c-1.4 0-2-.8-2.2-2.4s1-2.8 3-3.4 9.8-1.6 23.6-3a4.5 4.5 0 002-.6c.8-.2 1.4-1.8 1.6-4.4 2.6-17.4 5.6-26.2 8.6-26.2s3.2 1.6 3.2 4.6-.2 5.8-.6 10.8-1 10.2-1 12.2.6 2.8 1.6 2.8c12.6 0 21.8 0 27.2-.2 9.4 0 14.2 1.2 14.2 3.4s-.6 1.4-1.8 2-13.2 1.4-36 2.6a10.6 10.6 0 00-5 1.4c-2.6 21-4 38-4 51.2 0 4.4.2 8.4.4 12 1.8 23 5.8 34.6 12.2 34.6 3.8 0 9-4.6 15.6-14a306.5 306.5 0 0025-42.6 4.7 4.7 0 011.6-.4c1.2 0 2 .8 2 2.4s-2.6 7.4-7.6 16.2l-13 23.2c-9.6 16.4-18.2 24.6-26 24.6-11.6-1.4-18.4-14.8-20.2-40.2z"/>
            <path d="M812.6 484.2h-.5c-13.8-1.7-21.8-16.4-23.7-43.9-.7-8.9-1-16.3-1-23.1a305.2 305.2 0 012.2-36.5V377l-21.6.4c-1.4 0-5.6-.4-6.3-5.9v-.5c0-3.4 2.2-6.1 5.8-7.2 1.5-.5 5.7-1.2 24.2-3.1a4.6 4.6 0 00.2-1.4v-.3c3.7-24.6 7.6-29.6 12.6-29.6s7.2 2.3 7.2 8.6c0 2.4-.2 6-.6 11.2v1l-.9 9.6c11.4 0 19.7 0 24.6-.2h.2c5.9 0 18.2 0 18.2 7.4 0 1.7-.7 4-4 5.6-1.4.7-2.3 1.2-37.5 3l-1.6.3a414 414 0 00-3.7 48.3c0 4.4.2 8.4.4 11.8 2.4 30.5 8 30.8 8.2 30.8s3.9-.3 12.3-12.3 16.6-25.7 24.7-42l.7-1.5 1.9-.7a7.4 7.4 0 012.6-.5c3.5 0 6 2.7 6 6.4 0 1.3 0 3.9-8.1 18.2l-13 23.2c-10.7 18.2-20 26.6-29.5 26.6zM790.1 369c6.2 0 7.4 3.8 7.7 5.5v.3l-.2 6.7a293.5 293.5 0 00-2.2 35.7c0 6.6.3 13.8 1 22.5 1.1 15.7 4.9 34.8 16.4 36.4a10 10 0 005.6-2 10.6 10.6 0 01-3.4.6c-9.1 0-14.1-11.8-16.2-38.3-.2-3.6-.4-7.7-.4-12.3 0-12.8 1.3-29.8 4-51.7l.2-1.8 1.6-1a14.3 14.3 0 015.3-1.9h-1.7c-2.8 0-5.6-2.1-5.6-6.8 0-2 .3-5.6.9-11.5v-1c.2-2.5.4-4.6.4-6.4a132.7 132.7 0 00-3.6 18c-.2 1.8-.6 6.4-4.1 7.7a8 8 0 01-3.3.8l-4.2.5zm-20.6 2.7zm22.1-10.3zm12.1-24.6z" />
            <path d="M89.6 296.1L60.8 180.3 48.1 299 0 302.4l20.9-199.6 61.6-4.3L113 220.6l56.2-128.2 63.9-4.5-20.9 199.6-48.4 3.4 12.6-118.6L123 293.8zM243.1 198.6c-4.6-65.9 38-117.2 96.8-121.4 54.5-3.8 91.2 31.1 94.9 83.4 4.6 65.9-38 117.3-96.8 121.4-54.6 3.8-91.2-31.1-94.9-83.4zm139.7-33c-1.8-26.7-17.9-44.6-41.4-43-28.9 2.1-49.2 29.3-46.3 71.1 1.8 26.6 17.9 44.5 41.4 42.9 28.6-2 49.2-29.3 46.3-71zM466.3 71.6l72.9-5.1c55.5-3.9 86.9 25.3 90.5 76 4.7 67.1-39.5 118.6-109.2 123.5l-75.1 5.2zM522.6 221c37.2-2.6 58.4-31.2 55.7-69.7-1.8-26.7-17.1-41.8-45.3-39.8l-20.6 1.4L501 222.5zM802.8 48.1L798.2 93l-90.5 6.3-3.3 31.2 82.2-5.7-4.4 43.8-82.5 5.8-3.4 34.4 90.2-6.3-4.6 45.2-141.3 9.9L661.5 58zM864.1 176.5l-7 66L806 246l20.9-199.6 85.1-5.9c38.9-2.8 64.5 16.8 67 53.4s-16.7 60.2-45.3 72.2l40.6 68.2-54.6 3.8-36-63zm4.2-41.6l31.8-2.3c19.9-1.4 30.4-12.4 29.2-30.4-.9-11.6-8.5-18.8-24.8-17.6l-31.2 2.1zM1162.5 221.1l-39.8 2.8-71.3-114.4-12.5 120.2-49.8 3.5L1010 33.6l46.2-3.2 65.3 108L1133.6 25l49.8-3.5zM1352.6 9.7l-4.6 44.8-90.5 6.3-3.3 31.3 82.2-5.8-4.4 43.9-82.5 5.7-3.4 34.5 90.2-6.3-4.6 45.2-141.3 9.8 20.9-199.6zM1470.7 59.8c-2.7-10.8-13-19.4-29-18.3s-24.6 8.8-23.8 20.7c.5 7.1 4.4 11.3 14.2 13.5l36.4 8.5c28.2 6.4 43.5 21.5 45.2 45.5 3.1 45-33 72.4-77.4 75.5-46.9 3.3-78.3-17.5-84.6-57l52.3-3.7c3.6 14 15.9 20.2 30.7 19.2 16.4-1.2 26.5-9 25.9-21.5-.5-8.4-6-12.5-18.4-15.2l-32.8-7.1c-24.6-5-42.2-16.7-44.1-45-3-41.7 30.1-71.5 74.5-74.6 50.1-3.5 77.3 21.1 81.6 56z"/>
        </g>
        <g id="es" width="300" height="107" fill="currentColor">
            <path d="M1020.7 253.7c-13.6-1.1-15.4-19.4-32.8-17.2-8.4.3-16.3 4-16 11.9.4 11.7 18.5 12.1 29.6 14.8 18.8 5 37 8.2 37.7 28.4.9 25.7-18.9 35.3-45.4 36.3-22.2.7-45-6.3-45.7-26.8-.2-5.7 5-10.3 10.3-10.5s9.2 2.5 11.6 7.1c5.5 8.8 11.5 13.6 25.8 13.1 9.1-.3 18.3-4.2 18.1-12-.4-11.2-12-13.2-23.9-15.6-21.2-5.2-39.2-7.5-42.1-30.7-3.5-39.6 79-43.9 84.9-9.4-.1 6.3-5.9 10.4-12.1 10.6zm97.1-38.2c29-1 46.3 22.7 47.3 52.6s-14 54.6-43.6 55.7a38.6 38.6 0 01-34.6-16.6l1.4 39.7c.4 11.9-3.2 17.8-11.9 18.2-10.6.3-12.8-6.4-13.2-17.3l-4-115.3c-.3-9.4 3.5-15.3 12-15.6s12.8 6 13.1 14.8v3.2c8-10.5 17.1-18.8 33.5-19.4zm-3.8 88c17-.6 24-16.5 23.4-34.8s-8.9-33.8-25.8-33.2-25.4 15.5-24.7 34.9 9.5 33.7 27.1 33.1zm70-61.9c-.8-20.9 23-29.2 46.2-30 32.7-1.1 46.4 7.9 47.5 39.4l1.1 30.3c.2 7.3 5.2 21.5 5.3 25.8.3 6.6-5.6 10.9-12.1 11.2s-12.9-8-16.9-14a58.4 58.4 0 01-38.6 15.9c-19 .7-34.4-10-35-28.6-.6-16.4 10.8-26.2 24.9-29.9 0 .1 45.1-12.3 45.1-12.5-.5-13.9-5.7-19.9-20.4-19.4-12.9.4-19.4 4.2-24.2 12.2-3.9 6-3.2 9.5-11 9.8-6.1.2-11.7-4-11.9-10.2zm41 61.2c19.9-.7 27.9-11.5 27.2-32.5l-.2-4.4c-5.2 2-26.7 8.1-32.6 9.2s-12.3 6.3-12.1 13.7 9.1 14.3 17.7 14zm141.8-135.6c28-.9 59.1 14.8 60.1 41.5.2 6.9-4.8 12.7-11.5 13-9.2.3-10.7-4.6-15-11.5-7.2-12.1-15.5-20.2-33-19.6-26.8.7-38.1 24.3-37.1 53s11.8 49.4 39.6 48.4c18.4-.6 28.3-11.7 33.1-25.7 2-6.5 5.5-12.8 13.6-13.1 6.3-.2 12.7 6 13 12.9 1 28.3-27.3 48.8-56.9 49.9-32.6 1.1-51.5-12-62.3-34.5a86.4 86.4 0 01-9.4-37.6c-2-43.9 22.5-75.1 65.8-76.7zm162 34c7.2-.3 11.5 4.3 11.8 11.5.1 2.9-2 8.9-2.9 12.1l-31.4 92.1c-7 20-12.3 33.8-38.5 34.7-12.4.5-23.3-.2-23.7-11.1-.2-6.3 4.4-9.6 11-9.8 1.2 0 3.3.5 4.5.5a41.6 41.6 0 014.5.4c13.1-.5 14.5-14 18.8-23.5l-36.2-81.4c-2.1-4.4-3.5-7.3-3.6-10-.3-7.2 5.2-12.7 12.8-13s12 6.2 14.5 13.5l24.3 64.7 19.9-61.3c3-9.5 3-19 14.2-19.4zM220.8 338.2l-56.8 4-83.2-129.9L66.5 349 0 353.7l27.4-261 56.5-3.9 83.3 130.6 14.6-137.5 66.5-4.6zM327.1 275.5l102.3-7.2-6.2 59.7-168.8 11.8 27.4-260.9 66.5-4.7zM479.5 63.4l108.9-7.6c26.5-1.8 48.1 5 64.1 20.5s23.4 37.1 21.2 64.6c-3.3 52.5-37.1 84.3-89.5 88l-56.5 4-9.1 86.8-66.5 4.7zm60.3 55l-5.8 55.2 43-3.1c16.6-1.1 28-11.6 29.5-29.7 1.3-15.7-7.4-26.5-23.6-25.4zM656.2 332.4a26.3 26.3 0 01-4.9-.5c-3.1-.9-13.2-4.8-14.1-21.3v-5.2a145 145 0 016.7-37.4c4.5-12.6 10.7-19.2 18.4-19.7h.5a15.2 15.2 0 015.2 1.2h.2c4.3 2.2 9.1 10.3 9.4 16v.8c-.1 1.7-.1 3.7-3.3 4.9h-.8a4.3 4.3 0 01-3.8-1.7 14 14 0 01-2.2-4.2c-1-2.5-1.8-4.1-3.1-4.5s-3.5 3.7-4.8 7.2a82.7 82.7 0 00-6.2 35.5c.5 8.4 3.4 12.7 8.7 12.7h.6a26 26 0 0011.6-4.3 149.9 149.9 0 0045.1-41.1l1.8-2.2h.1a7.1 7.1 0 013.7-1.9h.3a2.9 2.9 0 013 2.2v1.4a5.4 5.4 0 01-.9 3.3 161.3 161.3 0 01-47.1 49.6 52.5 52.5 0 01-22.8 9.1z" />
            <path d="M662.7 249.7a15.3 15.3 0 014.8 1c3.9 2 8.4 9.5 8.7 14.9-.2 2.2.2 3.5-2.5 4.5h-.3a3 3 0 01-2.7-1.2c-2.3-2.6-2.7-8.8-6.5-9.3s-4.8 5.1-6 8.1a88 88 0 00-6.3 36.1c.5 8.1 3.4 14 10.1 14h.7a27 27 0 0012.2-4.4c23.8-13.9 34.6-28 47.2-43.6a5.2 5.2 0 012.9-1.5h.2a1.7 1.7 0 011.7 1.2v1a3.3 3.3 0 01-.7 2.5c-7 13.4-28.5 38.4-46.6 49.2-8.3 5-15.7 8.4-22.1 8.8h-1.4a23.1 23.1 0 01-4.6-.5c-5.8-1.6-12.3-7.4-13.1-20.1v-5.1c1.5-25 8.2-54.8 23.8-55.7h.4m0-2.7h-.6c-21.2 1.2-25.5 44.9-26.3 58.2v5.4c1 17.3 11.8 21.6 15.1 22.5h.1a22.4 22.4 0 005.2.6h1.5c6.3-.4 13.5-3.2 23.4-9.2 19-11.4 40.4-36.7 47.5-50a6.2 6.2 0 001.1-4.1v-1.8a4.3 4.3 0 00-4.3-3.1h-.4a7.3 7.3 0 00-4.5 2.2l-.2.2h-.1l-1.7 2.1c-12.1 15-22.5 27.9-44.8 40.8-4.2 2.6-7.9 4-10.9 4.2h-.6c-4.5 0-6.9-3.9-7.4-11.5a83 83 0 016.1-34.9 17.9 17.9 0 013.7-6.1 11.9 11.9 0 011.7 3.4 17.6 17.6 0 002.4 4.5 5.6 5.6 0 004.9 2.3h.9l.4-.2c4-1.4 4.1-4.2 4.1-6.1a1.5 1.5 0 00.1-.7v-.2c-.4-6.3-5.4-14.8-10.2-17.2h-.3a15.7 15.7 0 00-5.7-1.2z" />
            <path d="M733 326.7c-5.5 0-9.9-3.5-13.1-10.3a29.2 29.2 0 01-3-9.6 176.4 176.4 0 010-23c.4-6.7 2.5-14.1 6-22.1 3-6.2 6.3-9.5 10.1-9.7h.5c3.3 0 6.3 1.9 9.3 5.8a54.9 54.9 0 0110.1 29.4c7.1-3.2 15-8.5 23.4-15.8 4.7-4.4 8.3-7 9.8-7.1h.4c1.8 0 2.7.9 2.8 2.9s-.5 1.3-1.3 2.2a134.3 134.3 0 01-25.8 23.1l-7.5 4.7-1.5.9a35.3 35.3 0 01-8.2 22.1c-3.6 4.1-7.4 6.2-11.2 6.5zm1.9-56.1a178.3 178.3 0 00-3.6 26.8c-.5 10 .7 15.1 3.3 15.2l2.2-.3c.3-2.5.4-5 .5-7.4a149.6 149.6 0 00-2.4-34.3z" />
            <path d="M733.5 252.3c3.3 0 6.2 2 9 5.7a55.1 55.1 0 0110.1 29.7 99.2 99.2 0 0023.9-16c4.9-4.6 8.3-7 9.6-7.1h.4c1.6 0 2.4.8 2.5 2.6s-.5 1.1-1.3 1.9a130.3 130.3 0 01-25.7 23.2l-9.1 5.6a35 35 0 01-8.2 22.1c-3.5 4-7.2 6.1-10.9 6.3h-.8c-5.3 0-9.6-3.2-12.8-10a30 30 0 01-3-9.6 193.3 193.3 0 010-22.9 68 68 0 016.1-22c2.8-6.1 6.2-9.3 9.7-9.5h.5m1.1 60.7l2.5-.5c.3-2.5.4-5.1.6-7.6a151.3 151.3 0 00-2.8-36 179.3 179.3 0 00-4 28.5c-.4 10.3.7 15.4 3.7 15.6m-1.1-61.4h-.6c-3.8.2-7.3 3.5-10.3 9.8a65.5 65.5 0 00-6 22.2 196.9 196.9 0 00-.1 23.1 30.4 30.4 0 003.1 9.8c3.3 6.9 7.8 10.4 13.4 10.4h.8c3.9-.2 7.8-2.4 11.4-6.5a35.9 35.9 0 008.4-22.2l1.3-.9 7.5-4.6a131.9 131.9 0 0025.8-23.2c.9-.9 1.5-1.6 1.4-2.5s-1.1-3.1-3.1-3.1h-.4c-2.2.1-7.2 4.6-10 7.2a99.4 99.4 0 01-22.9 15.5 54.6 54.6 0 00-10.2-29.1c-3-4-6.1-6-9.5-6zm1 60.7c-1-.1-1.9-1.3-2.4-3.5a52 52 0 01-.5-11.4 172.6 172.6 0 013.3-25 158.7 158.7 0 012.1 32.5c-.1 2.3-.2 4.7-.5 7.1l-2 .3z" />
            <path d="M790.3 313c-7.6-.7-11.8-6.8-12.4-17.9a109.1 109.1 0 01-.1-11.4l.1-1.9c0-.6.4-3.5.5-6l.2-9.7a26.3 26.3 0 011.3-7.8 8.7 8.7 0 013.2-4.3 8.6 8.6 0 015.3-1.6h.3c4.2.7 6.6 3 6.8 6.6.7 11.6 1 20.6 1.2 26.9l3.4-6.5c1.2-2.4 4-7.3 6.2-11 12-19.2 20.3-28.3 26.2-28.6h.5a16.8 16.8 0 014 .6h.3a14.5 14.5 0 018.1 11.7c.2 4.1.4 8 .4 11.8v4c.5 8.7 2.3 15.1 5.4 19.1s4.5 4.4 7.5 4.4h.5c5.9-.9 12.5-4.4 19.2-10.3s13.2-12 17.8-16.9 8.3-7.6 10-7.7h.3a3.8 3.8 0 013.9 3v.2a4.4 4.4 0 01-1.3 3.2 299 299 0 01-24 25.7 53.4 53.4 0 01-29 16.4h-1.4a23.4 23.4 0 01-15.1-5.6c-4.7-4-8-11.2-10-22.2h-.1l-1.4-17.6a41.9 41.9 0 00-7.2 8.5 224.5 224.5 0 00-17.1 28.7q-1.8 3.8-3.9 7.5c-3 6.8-6.7 8.4-9.4 8.5h-.2z"/>
            <path d="M833 241.1a14.8 14.8 0 013.7.6 13 13 0 017.3 10.7 114.4 114.4 0 01.4 11.6v4c.5 9.2 2.5 15.8 5.8 20s5 4.8 8.5 4.8h.7c6.1-.9 12.9-4.5 19.9-10.6s12.8-11.5 17.9-17 7.4-7.2 9-7.2h.3a2.5 2.5 0 012.6 2.1 3.4 3.4 0 01-1 2.2 320.1 320.1 0 01-23.9 25.7 51.7 51.7 0 01-28.3 15.9h-1.2a21.9 21.9 0 01-14.2-5.4q-6.7-5.7-9.6-21.3l-1.7-19.9a35.9 35.9 0 00-9.4 10.3 230.6 230.6 0 00-17.3 28.8c-1.2 2.5-2.4 5-3.8 7.5-2.2 5-5 7.6-8.2 7.8-6.8-.7-10.7-6.2-11.3-16.7-.2-4-.2-7.8-.1-11.3a63.9 63.9 0 00.6-7.9l.3-9.7a24.8 24.8 0 011.2-7.4 8 8 0 012.7-3.7 8.6 8.6 0 014.5-1.3c3.6.6 5.6 2.4 5.8 5.3.8 14.3 1.1 24.8 1.3 31.6 1.9-3.1 3.9-6.7 5.8-10.6s3.9-7.3 6.1-10.9c11.4-18.2 19.8-27.6 25.2-28h.4m0-2.7h-.6c-6.5.3-14.9 9.3-27.2 29.2-2.3 3.7-4.3 7.4-6.3 11l-1 2-1-21.9c-.3-4.2-3.2-7-8-7.9h-.6a10.7 10.7 0 00-6 1.9 10.5 10.5 0 00-3.6 4.8h-.1a26.6 26.6 0 00-1.3 8.2v4.8l-.2 5a46.9 46.9 0 01-.4 5.9l-.2 1.8c-.1 3.7-.1 7.4.1 11.5.5 8.2 3.3 18.1 13.7 19.2h.4c3-.2 7.3-1.9 10.5-9.3 1.5-2.5 2.7-5.1 3.9-7.5a204.8 204.8 0 0117-28.5 46.1 46.1 0 015-6.3l1.2 14.6v.2c2.1 11.2 5.6 18.7 10.6 22.9a24.1 24.1 0 0015.9 6h1.6a55.3 55.3 0 0029.8-16.7 319.2 319.2 0 0024.1-25.9 6.1 6.1 0 001.6-4.1v-.5a5.2 5.2 0 00-5.2-4.1h-.4c-2.5.1-5.4 2.3-10.8 8.1a241.3 241.3 0 01-17.8 16.8 37.7 37.7 0 01-18.4 9.9h-.4c-2.5 0-4.6-1.3-6.3-3.8h-.1a34 34 0 01-5.2-18.3v-4c.1-3.9-.1-7.7-.4-11.8-.6-5.8-3.6-10-8.8-12.8h-.5a20.8 20.8 0 00-4.4-.7z"/>
            <path d="M785.2 51.7l28.2 105.5-27.7 2-5.3-20.5-39 2.7-10 21.5-27.9 2 53.1-111.2zm-32.7 65.9l22.3-1.6-7.5-29.8zM837.2 155.3L810.8 49.7l28-2 16.2 68.4 33.3-71.8 29.6-2.1-53.3 111.2zM972.5 38l28.2 105.4-27.7 2-5.3-20.5-39 2.7-10.1 21.6-27.8 1.9L943.9 40zm-32.7 65.8l22.3-1.6-7.5-29.7zM1103.2 136.2l-21.6 1.6-38.6-62.1-6.8 65.2-27 1.9 11.3-108.2 25.1-1.8 35.4 58.6 6.6-61.5 27-1.9zM1202.5 129.3l-85.9 6 2.1-21 56.2-66.4-48.7 3.5 2.6-24.4 84.7-5.9-2.3 20.8-55.3 66.3 49.2-3.4zM1290.4 15.7l28.2 105.5-27.7 1.9-5.3-20.4-39 2.7-10 21.5-27.9 2 53.2-111.2zm-32.7 65.8L1280 80l-7.5-29.8zM1338.5 12.4l39.5-2.8c30.1-2.1 47.2 13.7 49.1 41.2 2.5 36.4-21.4 64.3-59.2 66.9l-40.8 2.9zm30.5 80.9c20.2-1.4 31.7-16.9 30.2-37.8-1-14.4-9.2-22.6-24.6-21.5l-11.1.8-6.2 59.4zM1435.1 66c-2.5-35.7 20.6-63.6 52.5-65.8 29.6-2.1 49.5 16.8 51.4 45.2 2.5 35.7-20.5 63.6-52.4 65.8-29.6 2.1-49.5-16.8-51.5-45.2zm75.8-17.9c-1-14.5-9.8-24.2-22.5-23.3-15.6 1.1-26.7 15.9-25.1 38.5 1 14.5 9.7 24.2 22.4 23.3 15.5-1.1 26.8-15.9 25.2-38.5z"/>
        </g>
        <g id="ja" width="300" height="107" fill="currentColor">
            <path d="M73 110.5c-13.7-.6-16-18.8-33.4-16-8.4.6-16.1 4.6-15.5 12.4.8 11.7 18.9 11.5 30.1 13.8 18.9 4.3 37.2 6.9 38.6 27.1 1.8 25.7-17.7 36-44.1 37.8-22.2 1.6-45.2-4.7-46.6-25.1-.4-5.7 4.7-10.5 10-10.9s9.2 2.1 11.8 6.7c5.8 8.6 11.9 13.2 26.2 12.2 9.1-.7 18.2-4.8 17.7-12.6-.8-11.2-12.4-12.8-24.4-14.8C22 136.7 3.9 134.9.2 111.9c-4.9-39.5 77.4-46.7 84.5-12.3.1 6.2-5.5 10.5-11.7 10.9zM168.7 69c29-2 47 21 49.1 50.9s-12.1 55.1-41.6 57.2a38.5 38.5 0 01-35.1-15.3l2.7 39.5c.9 11.9-2.6 18-11.2 18.6-10.6.7-13-5.9-13.8-16.8l-8-115c-.7-9.4 2.9-15.5 11.4-16.1s13 5.5 13.6 14.3l.2 3.3c7.5-10.8 16.3-19.4 32.7-20.6zm-.7 88.1c16.9-1.2 23.4-17.4 22.1-35.7s-10-33.3-26.9-32.2-24.8 16.4-23.5 35.8 10.7 33.3 28.3 32.1zm67.8-64.4c-1.5-20.8 21.9-29.9 45.1-31.5 32.7-2.3 46.7 6.3 48.9 37.7l2.1 30.3c.5 7.2 5.9 21.2 6.2 25.5.5 6.7-5.2 11.2-11.7 11.6s-13.1-7.5-17.4-13.4a58.4 58.4 0 01-38 17.3c-19 1.3-34.7-8.8-36-27.4-1.1-16.3 9.9-26.5 23.9-30.8 0 .2 44.6-13.8 44.6-14-1-13.9-6.4-19.7-21-18.7-12.9.9-19.3 4.9-23.8 13-3.7 6.2-2.8 9.7-10.7 10.2-6.1.5-11.8-3.5-12.2-9.8zm43.1 59.8c19.8-1.4 27.5-12.5 26-33.4l-.3-4.5c-5.1 2.2-26.4 9.1-32.2 10.4s-12.2 6.8-11.6 14.1 9.5 14 18.1 13.4zM415.8 12.1c28.1-2 59.7 12.6 61.5 39.3.5 6.9-4.3 12.9-11 13.4-9.1.6-10.8-4.2-15.4-10.9-7.6-11.9-16.1-19.7-33.6-18.5-26.8 1.7-37.2 25.6-35.2 54.2s13.4 49 41.2 47.1c18.4-1.3 27.9-12.7 32.3-26.9 1.7-6.6 5-13 13-13.5 6.3-.5 13 5.5 13.5 12.3 1.9 28.3-25.6 49.8-55.2 51.9-32.5 2.3-51.8-10.2-63.4-32.3A86.8 86.8 0 01352.8 91c-3.6-43.8 19.8-75.9 63-78.9zM579 40.3c7.2-.5 11.6 3.9 12.1 11.1.2 2.9-1.6 9-2.4 12.2l-28.2 93.1c-6.3 20.3-11.1 34.3-37.2 36.1-12.4.9-23.3.6-24.1-10.3-.4-6.2 4-9.7 10.7-10.1 1.2-.1 3.3.3 4.5.2s3.2.4 4.5.3c13.1-.9 13.9-14.5 18-24.1l-39.1-80.1a28.1 28.1 0 01-4-9.8c-.5-7.3 4.8-13 12.4-13.5s12.2 5.8 14.9 13l26.6 63.8 17.8-61.9c2.6-9.7 2.3-19.2 13.5-20z"/>
            <path d="M675.1 60.2a7.7 7.7 0 01-5.4-1.8 7.1 7.1 0 01-2.6-5A7.2 7.2 0 01669 48a7.4 7.4 0 015.1-2.5l21.1-1.5c.7 0 1.1-.5 1.5-1.3l2-6.8a9.3 9.3 0 019.8-6.8l2.4.4a7.2 7.2 0 014.8 2.9 6.4 6.4 0 01.9 5.4l-.6 1.9a6.8 6.8 0 00-.5 1.7q-.3 1.2.9 1.2l48.9-3.5a7.5 7.5 0 015.4 1.8 7.4 7.4 0 01-4.4 12.9l-55 3.8a1.8 1.8 0 00-1.6 1.3c-1 3.1-2.4 6.7-3.9 10.7l.1.2h.2a36.9 36.9 0 0113.9-3.9q17.7-1.2 25.5 13.8c.3.7 1 .9 1.9.7 7.2-2 14-3.6 20.2-4.9a7.4 7.4 0 015.6 1.1 6.9 6.9 0 013.1 5 7.7 7.7 0 01-6.1 9q-12 2.7-18.3 4.5c-.8.2-1.1.7-.9 1.4.9 4.9 1.5 9 1.8 12.4a7.5 7.5 0 01-7 8.4l-2.8.2a7.6 7.6 0 01-5.7-1.9 7.7 7.7 0 01-2.8-5.3l-1-7.5q0-1.3-1.2-.9c-14.4 6.2-21.5 12.3-21.1 18.3a9.5 9.5 0 002.6 6.1c1.5 1.5 4.5 2.7 9.2 3.5s11.2.8 19.5.3a207.2 207.2 0 0026.5-4 7.7 7.7 0 015.9 1.2 7 7 0 013.2 5 8.4 8.4 0 01-1.3 6 7.5 7.5 0 01-5.1 3.3 240 240 0 01-28.1 3.7c-17.4 1.2-30 0-37.9-3.6s-12.2-9.6-12.8-18.3q-1.5-21.3 34.9-36.4c.8-.2 1-.7.6-1.4-2.4-3.7-6.2-5.4-11.6-5-8.6.6-18.1 8.6-28.5 23.9a8.4 8.4 0 01-5.1 3.7 8.8 8.8 0 01-6.2-.7l-1.1-.6a7 7 0 01-3.7-4.4 7.4 7.4 0 01.7-5.8 243.7 243.7 0 0017.9-36.4 1.1 1.1 0 00-.1-.8.8.8 0 00-.7-.4z"/>
            <path d="M803.8 94l-2.2-6.3c-1.5-4.7-1-9.4 1.6-14.3a145.5 145.5 0 0014.8-46 7.7 7.7 0 013.1-5.3 7.8 7.8 0 015.8-1.7h1.6a9 9 0 015.3 2.9 7.8 7.8 0 011.7 5.7 169.5 169.5 0 01-5 24.2 9.1 9.1 0 00-.3 2.3l5.7 81.4a7.3 7.3 0 01-1.9 5.6 7.8 7.8 0 01-5.4 2.7h-1.7a7.7 7.7 0 01-8.2-7.2l-3.6-50.3a.3.3 0 00-.3-.3l-.4.2a90.2 90.2 0 01-3.8 7.1 3.5 3.5 0 01-3.7 1.7 3.4 3.4 0 01-3.1-2.4zm88.1-55.2c-.9 0-1.2.5-1.2 1.3l.3 4.5c.1.8.5 1.1 1.4 1.1l25-1.8a7.7 7.7 0 015.7 2 7.4 7.4 0 012.7 5.3l2.7 38.3a7.6 7.6 0 01-2 5.7 7.4 7.4 0 01-5.4 2.6l-2.3.2a6.8 6.8 0 01-5-1.7 6 6 0 01-2.4-4.6c0-.6-.4-.9-1-.9L893.6 92c-.7 0-1.1.4-1.3 1.2a67 67 0 01-4.4 20.4q-.5 1.2.6 1.5c10.5 4 23.5 6 39 6.1a7.4 7.4 0 015.4 2.3 6 6 0 011.9 5.3v.2a9.1 9.1 0 01-2.8 5.6 8.1 8.1 0 01-5.7 2.3 119 119 0 01-47.2-8.8 2 2 0 00-1.8.3 71.8 71.8 0 01-23.8 12.2 9.1 9.1 0 01-6.5-.3 8.8 8.8 0 01-4.6-4.5v-.4a6.5 6.5 0 01-.2-5.6 6.3 6.3 0 014.2-3.9 67 67 0 0014.8-6.8c.6-.4.7-.9.1-1.4a69.7 69.7 0 01-10.1-9.3 6.8 6.8 0 01-1.7-5.6 7.7 7.7 0 013.1-5l.7-.5a7.7 7.7 0 015.8-1.5 8.2 8.2 0 015.3 3 41.5 41.5 0 006.4 6.3 1.1 1.1 0 00.8.2.9.9 0 00.7-.6 54.9 54.9 0 001.9-10.2c.2-.8-.2-1.1-1-1.1l-13.6 1-8.7.6a7.7 7.7 0 01-5.7-2 7.3 7.3 0 01-2.7-5.4l-2.1-30.4a7.6 7.6 0 011.9-5.7 7.8 7.8 0 015.4-2.7l23.8-1.7c.8 0 1.2-.4 1.1-1.2l-.3-4.5c0-.9-.5-1.2-1.3-1.2L845.4 42a7.4 7.4 0 01-5.5-1.8 7.8 7.8 0 01-2.5-5.1 7.4 7.4 0 011.8-5.4 6.8 6.8 0 015.2-2.6l25.5-1.8c.9-.1 1.3-.5 1.2-1.3v-1.2a7.8 7.8 0 011.9-5.6 7.3 7.3 0 015.3-2.6l2.8-.2a7.6 7.6 0 015.7 1.9 6.9 6.9 0 012.7 5.3v1.1c.1.8.5 1.2 1.3 1.1l29.3-2a6.7 6.7 0 015.5 1.8 7.4 7.4 0 012.5 5.1 6.9 6.9 0 01-1.8 5.4 6.7 6.7 0 01-5.1 2.6zm-32 41.8l13.6-1c.7 0 1-.5 1-1.3-.1-4.8-.3-10.3-.7-16.5-.1-.7-.5-1-1.4-1l-13.8 1a1.1 1.1 0 00-1.2 1.2l1.2 16.6c0 .7.5 1 1.3 1zM908 58.3l-14.7 1.1c-.8 0-1.2.4-1.2 1.1.5 6 .7 11.6.8 16.8 0 .7.4.9 1.2.9l15.2-1.1a.9.9 0 001-1.1l-1.2-16.6a1 1 0 00-1.1-1.1z"/>
            <path d="M957.9 62.5v-.4a7.7 7.7 0 01.7-6.1 8.3 8.3 0 014.8-3.8q28.8-8.4 42.6-9.3c28.4-2 43.5 8.8 45.1 32.5q3 42.5-61.6 49.2a8.2 8.2 0 01-6-1.7 7.9 7.9 0 01-3.1-5.4v-.2a7.1 7.1 0 011.5-5.6 7.7 7.7 0 015.1-2.8c17.1-1.8 29.2-5.3 36.4-10.4s10.6-11.9 10-20.6c-.5-7.1-3-12.1-7.4-15.2s-11.3-4.2-20.5-3.5c-7.6.5-20.2 3.4-37.7 8.6a7.5 7.5 0 01-6-.7 7.3 7.3 0 01-3.9-4.6z"/>
            <path d="M1093.8 119.7a7.2 7.2 0 01-4.8-3.2 6.4 6.4 0 01-.9-5.7 751.4 751.4 0 0014.9-76.9q.2-1.3-.9-1.2l-9.8.7a7.4 7.4 0 01-5.7-2 8 8 0 01-2.8-5.4 7.4 7.4 0 012-5.6 7.8 7.8 0 015.4-2.7l12.8-.9a1.2 1.2 0 001.3-1.2l1-8a9 9 0 012.9-5.5 7.5 7.5 0 015.7-2.1h1.8a6.6 6.6 0 015.3 2.4 7.1 7.1 0 011.8 5.7 22.4 22.4 0 01-.3 3.1l-.4 3a1.6 1.6 0 00.3.9 1.3 1.3 0 00.8.3l39.3-2.7a7.9 7.9 0 018.4 7.2 7.7 7.7 0 01-2 5.7 7.4 7.4 0 01-5.3 2.7l-42.2 2.9a1.6 1.6 0 00-1.5 1.3 713.3 713.3 0 01-15.1 81 7.9 7.9 0 01-3.6 5.1 8.9 8.9 0 01-6.1 1.3zm97.7-24.4a7.9 7.9 0 015.8 1.1 8 8 0 013.4 5 7.9 7.9 0 01-1.2 6 7.2 7.2 0 01-4.9 3.4 141.5 141.5 0 01-21.3 3c-12.7.9-23-.7-31-4.8s-12.1-9.8-12.6-17.1c-.4-5.5 1.9-11.1 7-17.1a9 9 0 015.6-2.9 10.2 10.2 0 016.2 1.1 5.5 5.5 0 012.9 4.2 6.3 6.3 0 01-1.4 4.9c-2.2 2.5-3.2 4.7-3 6.8s2.6 5.7 7.1 7.4 10.6 2.4 18.1 1.9a135.4 135.4 0 0019.3-2.9zm-44.4-36.7a7.8 7.8 0 01-8.7-6.4 8 8 0 011.4-5.8 7.4 7.4 0 015.1-3.2 411.6 411.6 0 0141.6-5.3 6.9 6.9 0 015.5 1.9 7.7 7.7 0 01.7 10.9 7.6 7.6 0 01-5.3 2.7c-14.6 1.3-28.1 3-40.3 5.2z"/>
            <path d="M67.4 357.3c-.3 1.6-1.7 2.8-4.5 3.3-3.3 21.7-7.7 43.3-43.6 59.4-3-5.9-9.8-14.9-15.3-19.3 31.6-11.5 34.3-27.3 35.4-44.6zm39.8 26.3c.4 5.5 1 6.1 5.3 5.8l10.2-.8c4.1-.2 4.7-3 4.1-20.6a67.4 67.4 0 0021.3 7.5c-.4 25.9-5.9 33.4-21.7 34.5l-16 1.1c-19.8 1.4-24.9-5.3-26.3-25.8l-2.4-33.7L3.5 357l-1.6-22.1 59.3-4.1-1.6-22.2-24.2 1.7a104.8 104.8 0 01-9.7 21c-5.4-3.1-15.5-6.9-21.1-8.6 9.1-13.4 14.9-35.3 16.9-51.5l26.8 3.9c-.5 1.7-1.9 2.5-4.3 2.7-.5 3-1.2 6.6-2.1 10.1l16.2-1.1-1.4-19.5 28.2-.6c0 1.9-1.3 3.1-4.6 3.8l1 14.6 46.1-3.2 1.5 21.9-46 3.2 1.5 22.1 59.1-4.1 1.5 22.1-40.2 2.9z"/>
            <path d="M193.7 318.8l3.5 50.3c9.1 14.3 24.3 13.3 54.7 11.1 18.8-1.3 41.1-3.5 56.7-6a100.5 100.5 0 00-5.5 22.7 923 923 0 01-44.7 4.2c-38.4 2.7-54.9 3.5-69.4-12.7a272.4 272.4 0 01-16.4 17c.2 2-.4 2.8-2.1 3.7L158 385.9a221.6 221.6 0 0017.5-13.7l-2.1-30.8-16.4 1.1-1.4-21zM169 263.5c9.2 6.3 20.7 15.8 26.2 22.8l-17.8 15.6a141 141 0 00-24.9-24.3zm42.8 115.1l-4-56.7a56.4 56.4 0 01-4.5 5.1 147.5 147.5 0 00-16.4-16.2c12.8-12.2 23.7-33.6 28.7-54.5l26.4 6.1c-.5 1.4-2.2 2.5-4.5 2.4-1.4 4.6-3.2 9.3-4.9 14l12.7-.9a162.7 162.7 0 005.7-22.6l27.3 4.5c-.5 1.5-2 2.4-4.5 2.6-1.5 4.2-3.5 9.2-5.7 13.9l28.1-1.9 1.4 19-31 2.2.4 6.1 24.7-1.7 1.3 18.2-24.7 1.7.5 6.3 23.8-1.7 1.3 18.2-23.9 1.7.5 6.4 32.8-2.2 1.3 19-71.1 4.9.3 4.6zm33.6-75.4l-.5-6.1-16.6 1.1.4 6.2zm1.7 24.5l-.5-6.3-16.6 1.2.4 6.3zm1.7 24.7l-.4-6.5-16.7 1.2.4 6.4z"/>
            <path d="M439.9 267.6h12l.2 7.2c3.2 70.7 3.2 95.8-2.2 104.4-6.5 11-15.3 12.1-37.7 13.2a53 53 0 00-8.6-21.3c8.3 0 15.9-.4 19.8-.6a6.7 6.7 0 005.9-3.5c3.6-4.8 4-26.4 1.7-77.4l-25.8 1.8a137.2 137.2 0 01-6.1 18.1l11-5.5c7.6 10.3 15.4 24 18.1 33.9l-20.4 10.6c-1.8-7.9-7.2-19.4-13.1-29.4l-3.2 5.4a146.8 146.8 0 00-13.6-11.6l4 57.2-38.5 2.6.7 10.3-20.9 1.4-7.6-108.8 15.8-1.2a167.4 167.4 0 003.2-26.7l28.1 3.9c-.5 1.4-1.9 2.3-4.6 2.7-1.3 5.6-3.2 12.5-5.3 18.6l22.2-1.5 2.2 32.4c7.5-15.2 11.7-37.8 13.2-59.7l27 4.1c-.4 1.5-1.9 2.7-4.3 2.7a300 300 0 01-2.9 19l24.8-1.8zm-83.6 44.3l-1.3-18.7-17.1 1.2 1.3 18.6zM342 352.5l17.1-1.2-1.4-19.7-17.1 1.2z"/>
            <path d="M532 239.3a5.9 5.9 0 01-4.5 3.9c-.4 4.9-1.4 12.6-2 16.4 9.3-1.3 24.5-5 34.6-9.4l4.4 22.3a301.9 301.9 0 01-41.7 9.4c-5.1 28.5-12.5 53-23.7 76l-24.5-6.5a195.9 195.9 0 0022.8-67.3l-25.1 1.8-1.5-21.4 28.9-2a222.9 222.9 0 001.2-23.3zm44.3 66.3c.5 8 1.5 17.1 2.8 25.2 8 2.8 22.2 8.3 30.1 12.9l-9.4 23.1c-4.8-3.6-14-8.2-19.1-10.8.2 4.1-1.1 22.2-31.3 24.3-13 .9-32.3-4.2-33.7-24.5-.8-16.4 14.1-27.7 30.2-28.8 3.1-.2 6.3-.3 9.6-.2-.6-4.2-1.1-11.3-1.5-16.9zm-18.1 41.7a33.5 33.5 0 00-11.6-1.2c-6.8.4-10.9 4.2-10.8 8.3s4.9 7.2 12.3 6.7 10.7-4.5 10.4-9.9zm45.4-52.6a302.8 302.8 0 00-53.9 9.6l-4.6-20.3a258.8 258.8 0 0155.5-11.5z"/>
            <path d="M698.8 227.8c-.5 1.6-1.8 2.5-4.5 2.8-1.1 3.9-2.6 8.1-4 12.3l49.8-3.5 9 129.3-24.3 1.7-.6-7.6-65.2 4.6.6 7.5-23.1 1.7-9.1-129.3 37.3-2.6a139 139 0 002.8-20.3zm18.5 35.6l-65.2 4.6.8 11.6 65.2-4.6zm2.3 32.7l-65.2 4.5.8 12.3 65.2-4.6zm-62 50.3l65.2-4.6-.9-12.4-65.2 4.5z"/>
            <path d="M835.1 265.6l-.4-5.5a114.8 114.8 0 01-55.4 65.9 83.9 83.9 0 00-15-18.5 103 103 0 0024.9-16 110.1 110.1 0 00-12.9-8.5l12.6-13.4a142.2 142.2 0 0113.2 7.6l2.7-4a104.8 104.8 0 00-13.6-7.2l9.6-14.3a90.2 90.2 0 0112 5.5 85.9 85.9 0 003.4-10.5l-18.4 1.3a113.4 113.4 0 01-20.4 27.9 135.1 135.1 0 00-16.8-13.6 101.5 101.5 0 0026.9-47.1l25.8 5.3a4.4 4.4 0 01-4.4 2.6l-1.6 4.5 17.4-1.2 3.7-1.1 15 5.8a6.4 6.4 0 01-2.2 3.3 139 139 0 01-1.8 9.3l13-1c0-9.1-.7-19.3-1.4-30.8l27.6-.2c-.2 1.8-1.5 3.1-4.4 3.8.4 9.1.7 17.6.8 25.7l14-1a95.1 95.1 0 00-12.3-17.3l16.2-10.1a86.8 86.8 0 0114.2 18.2l-13.5 8.9 11.4-.8 1.5 21.5-27.6 1.9a57 57 0 0035.2 34.2 83.2 83.2 0 00-13.7 21.1 65.5 65.5 0 01-32.2-29.9c-6.1 14.3-17.3 26-37.2 35.3a62.8 62.8 0 00-15.1-18.2c22.9-10 32-22.5 35.2-40.5zm-28 65.2a95 95 0 01-14.6 35.2l-22.8-7.3c6.2-7 12.1-19.9 14.7-31.6zm11.5 31.4a213.8 213.8 0 00-5-30.9l21-4c2.8 9.6 5.5 22.2 6.2 30.1zm35.4-2.3c-1.4-7.8-5.6-20.4-9.6-30.1l21.3-5.1c4.4 9.2 9.1 21.3 10.9 29.2zm41.2-1.3a208.2 208.2 0 00-20-31.7l21.5-8.3c7.4 9.2 17 22 21.6 30.7z"/>
            <path d="M919.7 236.2l144.2-10.1 1.3 19.1L921 255.3zm30.4 118.6l-3.7-51.9 100.7-7 3.6 51.2-23.7 1.7-.3-4.3-54.5 3.8.3 4.9zm91.1-103.5l1.2 17.8-94.9 6.6-1.2-17.7zM949.1 298l-1.3-17.7 94.9-6.7 1.3 17.8zm85.7-92.2l1.3 17.8-88.5 6.2-1.2-17.8zm-10.1 110.6l-54.5 3.8.7 9.6 54.5-3.8z"/>
            <path d="M1132.8 218.9l1.3 17.7-59.6 4.2-1.2-17.8zm.4 68.3l3.4 49-29 2 .3 5.5-19 1.4-3.8-54.5zm-4.6-44.8l1.2 16.9-46 3.3-1.2-17zm-43.2 42.5l-1.2-17 46-3.2 1.2 16.9zm40.2-87.8l1.2 17-45.2 3.2-1.2-17zm-10.5 109.2l-9.7.7.9 13.3 9.7-.6zm97.4-56.8l13.2-1 1.4 19.8-92.1 6.5-1.4-19.8 18.6-1.3c.5-3.8 1-8 1.3-12.3l-11.9.9-1.4-19.2 15-1 .5-8.5-18.6 1.3-1.3-19.3 79.9-5.6 1.4 19.4-39.4 2.7-.7 8.4 33.3-2.3zm-61.5 91.2l-4.2-60.4 70.5-5 4.2 59.9-22.3 1.5-.4-4.7-26.8 1.9.3 5.3zm45.4-43.5l-26.9 1.8 1.1 14.6 26.8-1.8zm-6.8-58.3l-14.3 1c-.3 4.3-.6 8.4-1.1 12.2l16.3-1.1z"/>
            <path d="M1288.2 205.8l12.1 1.5a26.1 26.1 0 01-.8 4.2c.5 30.3-2 55.1-8.7 74.9 16.3 14.1 35.6 16.7 56.8 15.2 7.3-.5 28-2 36.5-2.9-3 5.4-5.7 16.3-6.5 22.6l-29.6 2c-25.1 1.8-47.4-1.4-66.2-16.8a87.9 87.9 0 01-25.8 28.2 89 89 0 00-15-17.8 63.4 63.4 0 0024.9-28.1 149.7 149.7 0 01-11.4-20.5 105.6 105.6 0 01-6 12.6 122.1 122.1 0 00-16.6-15.4c9.8-17.6 13.4-49.8 13.9-80.9l26.6 2.7c-.4 1.6-1.7 2.8-4.2 3l-1.3 17.3 17.6-1.2zm-23.6 21.1c-.5 4.3-1.3 8.4-2.1 12.4a155.1 155.1 0 0011.4 25.9 194.5 194.5 0 004.3-39.3zm99.6 40.2c.4 6 .4 6.6 1.7 6.5s1.9-.1 2.4-.9-.2-19.3-.4-22.4a54.1 54.1 0 0015.6 7.1c.6 22.4.5 34.4-14.9 35.4l-8.3.6c-4.2.3-9-.9-12.1-3.9s-4.7-7.1-5.6-19.6l-4.4-62.5-10.5.7.6 9.4c1.6 22.3 1.6 55.8-10.5 77.8a85.9 85.9 0 00-19.2-10.2c11.1-19.9 10.1-47.4 8.8-66.3l-1.9-28.3 53-3.7z"/>
            <path d="M1449 267.5l3.8 19.1c-18.6 6.9-38.5 13.9-51.3 18.3a3.8 3.8 0 01-2.7 3.2l-8-23.1a434 434 0 0020-5.7l-2.2-31.4-16.2 1.1-1.4-20.9 16.1-1.1-1.7-24.8-17.3 1.2-1.4-21.1 55.3-3.8 1.4 21-16 1.1 1.7 24.9 15-1.1 1.4 20.9-14.9 1.1 1.8 26.4zm56.1 24l38.3-2.7 1.5 20.6-100.4 7-1.4-20.6 41-2.8-1-13.8-31.1 2.1-1.4-20.1 31.1-2.2-.8-11.3-30.8 2.2-5.1-72.6 84.7-5.9 5.1 72.6-32.9 2.3.8 11.3 33.5-2.4 1.4 20.1-33.5 2.4zm-38.6-96.4l.5 8.1 10.7-.7-.5-8.2zm2.4 34.2l10.7-.7-.6-8.4-10.7.8zm41.7-29.1l-.6-8.2-11.8.9.6 8.1zm1.8 26.1l-.6-8.4-11.8.9.6 8.3z"/>
        </g>
    </defs>
</svg>
